{"title":"Naruto Episodes 20-36 1st and 2nd Chunnin Exams MP4 OOTR","uid":7924219,"size":3369323904,"categoryP":"video","categoryS":"tv_shows","magnet":"?xt=urn:btih:3f5475cc5d54649b5d2ba4811789c89cfe5faa3b&amp;dn=Naruto+Episodes+20-36+1st+and+2nd+Chunnin+Exams+MP4+OOTR&amp;tr=udp%3A%2F%2Ftracker.openbittorrent.com%3A80&amp;tr=udp%3A%2F%2Fopen.demonii.com%3A1337&amp;tr=udp%3A%2F%2Ftracker.coppersurfer.tk%3A6969&amp;tr=udp%3A%2F%2Fexodus.desync.com%3A6969","seeders":0,"leechers":0,"uploader":"OOTR","files":1,"time":1355543271,"description":"Naruto Episodes 20-36\n\nEdited to omit intros/outros and promote continuity.\n\nPlease SEED and enjoy! Leave a comment if you like.\n\nFormat                                   : MPEG-4\nCodec ID                                 : M4V \nFile size                                : 3.14 GiB\nDuration                                 : 4h 58mn\nOverall bit rate mode                    : Variable\nOverall bit rate                         : 1 506 Kbps\nEncoded date                             : UTC 2012-12-12 11:51:27\n\nVideo\nID                                       : 1\nFormat                                   : AVC\nFormat/Info                              : Advanced Video Codec\nFormat profile                           : &lt;a class=&quot;__cf_email__&quot; href=&quot;/cdn-cgi/l/email-protection&quot; data-cfemail=&quot;6c2e0d1f09000502092c205f425c&quot;&gt;[email&amp;#160;protected]&lt;/a&gt;&lt;script cf-hash='f9e31' type=&quot;text/javascript&quot;&gt;\n/* &lt;![CDATA[ */!function(){try{var t=&quot;currentScript&quot;in document?document.currentScript:function(){for(var t=document.getElementsByTagName(&quot;script&quot;),e=t.length;e--;)if(t[e].getAttribute(&quot;cf-hash&quot;))return t[e]}();if(t&amp;&amp;t.previousSibling){var e,r,n,i,c=t.previousSibling,a=c.getAttribute(&quot;data-cfemail&quot;);if(a){for(e=&quot;&quot;,r=parseInt(a.substr(0,2),16),n=2;a.length-n;n+=2)i=parseInt(a.substr(n,2),16)^r,e+=String.fromCharCode(i);e=document.createTextNode(e),c.parentNode.replaceChild(e,c)}}}catch(u){}}();/* ]]&gt; */&lt;/script&gt;\nFormat settings, CABAC                   : No\nFormat settings, ReFrames                : 2 frames\nFormat settings, GOP                     : M=1, N=72\nCodec ID                                 : avc1\nCodec ID/Info                            : Advanced Video Coding\nDuration                                 : 4h 58mn\nSource duration                          : 4h 58mn\nBit rate mode                            : Variable\nBit rate                                 : 1 378 Kbps\nWidth                                    : 640 pixels\nHeight                                   : 480 pixels\nDisplay aspect ratio                     : 4:3\nFrame rate mode                          : Variable\nFrame rate                               : 23.976 fps\nMinimum frame rate                       : 23.976 fps\nMaximum frame rate                       : 24.000 fps\nStandard                                 : NTSC\nColor space                              : YUV\nChroma subsampling                       : 4:2:0\nBit depth                                : 8 bits\nScan type                                : Progressive\nBits/(Pixel*Frame)                       : 0.187\nStream size                              : 2.87 GiB (92%)\nSource stream size                       : 2.87 GiB (92%)\nLanguage                                 : English\nEncoded date                             : UTC 2012-12-12 11:51:27\n\n\nAudio\nID                                       : 2\nFormat                                   : AAC\nFormat/Info                              : Advanced Audio Codec\nFormat profile                           : LC\nCodec ID                                 : 40\nDuration                                 : 4h 58mn\nSource duration                          : 4h 58mn\nBit rate mode                            : Variable\nBit rate                                 : 126 Kbps\nMaximum bit rate                         : 210 Kbps\nChannel(s)                               : 2 channels\nChannel positions                        : Front: L R\nSampling rate                            : 44.1 KHz\nCompression mode                         : Lossy\nStream size                              : 268 MiB (8%)","torrent":{"xt":"urn:btih:3f5475cc5d54649b5d2ba4811789c89cfe5faa3b","amp;dn":"Naruto+Episodes+20-36+1st+and+2nd+Chunnin+Exams+MP4+OOTR","amp;tr":["udp%3A%2F%2Ftracker.openbittorrent.com%3A80","udp%3A%2F%2Fopen.demonii.com%3A1337","udp%3A%2F%2Ftracker.coppersurfer.tk%3A6969","udp%3A%2F%2Fexodus.desync.com%3A6969"],"infoHash":"3f5475cc5d54649b5d2ba4811789c89cfe5faa3b","infoHashBuffer":{"type":"Buffer","data":[63,84,117,204,93,84,100,155,93,43,164,129,23,137,200,156,254,95,170,59]},"announce":[],"urlList":[]}}